REM DIRINDEX 1\2,1\3,1\4,1\5,1\6
REM DIRNAME cjc030,folder01,folder02,folder03,folder04,folder05
TITLE ""
FILE "Disc4Track72.mp3" MP3
  TRACK 01 AUDIO
    TITLE "3:cjc030_08205"
    INDEX 01 00:00:00
  TRACK 02 AUDIO
    TITLE "0:"
    INDEX 01 00:01:07
  TRACK 03 AUDIO
    TITLE "4:cjc030_08206"
    INDEX 01 00:01:13
  TRACK 04 AUDIO
    TITLE "0:"
    INDEX 01 00:03:57
  TRACK 05 AUDIO
    TITLE "5:cjc030_08207"
    INDEX 01 00:03:61
  TRACK 06 AUDIO
    TITLE "0:"
    INDEX 01 00:04:70
  TRACK 07 AUDIO
    TITLE "6:cjc030_08208"
    INDEX 01 00:05:09
  TRACK 08 AUDIO
    TITLE "0:"
    INDEX 01 00:10:29
  TRACK 09 AUDIO
    TITLE "3:cjc030_08209"
    INDEX 01 00:11:03
  TRACK 10 AUDIO
    TITLE "0:"
    INDEX 01 00:12:01
  TRACK 11 AUDIO
    TITLE "4:cjc030_08210"
    INDEX 01 00:12:09
  TRACK 12 AUDIO
    TITLE "0:"
    INDEX 01 00:14:23
  TRACK 13 AUDIO
    TITLE "5:cjc030_08211"
    INDEX 01 00:14:33
  TRACK 14 AUDIO
    TITLE "0:"
    INDEX 01 00:15:28
  TRACK 15 AUDIO
    TITLE "6:cjc030_08212"
    INDEX 01 00:15:42
  TRACK 16 AUDIO
    TITLE "0:"
    INDEX 01 00:17:70
  TRACK 17 AUDIO
    TITLE "3:cjc030_08213"
    INDEX 01 00:18:44
  TRACK 18 AUDIO
    TITLE "0:"
    INDEX 01 00:19:38
  TRACK 19 AUDIO
    TITLE "4:cjc030_08214"
    INDEX 01 00:19:46
  TRACK 20 AUDIO
    TITLE "0:"
    INDEX 01 00:20:61
  TRACK 21 AUDIO
    TITLE "5:cjc030_08215"
    INDEX 01 00:20:67
  TRACK 22 AUDIO
    TITLE "0:"
    INDEX 01 00:21:64
  TRACK 23 AUDIO
    TITLE "6:cjc030_08216"
    INDEX 01 00:21:74
  TRACK 24 AUDIO
    TITLE "0:"
    INDEX 01 00:24:20
  TRACK 25 AUDIO
    TITLE "3:cjc030_08217"
    INDEX 01 00:24:71
  TRACK 26 AUDIO
    TITLE "0:"
    INDEX 01 00:25:74
  TRACK 27 AUDIO
    TITLE "4:cjc030_08218"
    INDEX 01 00:26:07
  TRACK 28 AUDIO
    TITLE "0:"
    INDEX 01 00:28:41
  TRACK 29 AUDIO
    TITLE "5:cjc030_08219"
    INDEX 01 00:28:47
  TRACK 30 AUDIO
    TITLE "0:"
    INDEX 01 00:29:54
  TRACK 31 AUDIO
    TITLE "6:cjc030_08220"
    INDEX 01 00:29:66
  TRACK 32 AUDIO
    TITLE "0:"
    INDEX 01 00:32:35
  TRACK 33 AUDIO
    TITLE "3:cjc030_08221"
    INDEX 01 00:33:11
  TRACK 34 AUDIO
    TITLE "0:"
    INDEX 01 00:34:18
  TRACK 35 AUDIO
    TITLE "4:cjc030_08222"
    INDEX 01 00:34:26
  TRACK 36 AUDIO
    TITLE "0:"
    INDEX 01 00:36:36
  TRACK 37 AUDIO
    TITLE "5:cjc030_08223"
    INDEX 01 00:36:46
  TRACK 38 AUDIO
    TITLE "0:"
    INDEX 01 00:37:52
  TRACK 39 AUDIO
    TITLE "6:cjc030_08224"
    INDEX 01 00:37:65
  TRACK 40 AUDIO
    TITLE "0:"
    INDEX 01 00:41:28
  TRACK 41 AUDIO
    TITLE "3:cjc030_08225"
    INDEX 01 00:42:04
  TRACK 42 AUDIO
    TITLE "0:"
    INDEX 01 00:43:05
  TRACK 43 AUDIO
    TITLE "4:cjc030_08226"
    INDEX 01 00:43:15
  TRACK 44 AUDIO
    TITLE "0:"
    INDEX 01 00:45:06
  TRACK 45 AUDIO
    TITLE "5:cjc030_08227"
    INDEX 01 00:45:14
  TRACK 46 AUDIO
    TITLE "0:"
    INDEX 01 00:46:17
  TRACK 47 AUDIO
    TITLE "6:cjc030_08228"
    INDEX 01 00:46:29
  TRACK 48 AUDIO
    TITLE "0:"
    INDEX 01 00:48:06
  TRACK 49 AUDIO
    TITLE "3:cjc030_08229"
    INDEX 01 00:48:57
  TRACK 50 AUDIO
    TITLE "0:"
    INDEX 01 00:49:61
  TRACK 51 AUDIO
    TITLE "4:cjc030_08230"
    INDEX 01 00:49:72
  TRACK 52 AUDIO
    TITLE "0:"
    INDEX 01 00:52:37
  TRACK 53 AUDIO
    TITLE "5:cjc030_08231"
    INDEX 01 00:52:47
  TRACK 54 AUDIO
    TITLE "0:"
    INDEX 01 00:53:51
  TRACK 55 AUDIO
    TITLE "6:cjc030_08232"
    INDEX 01 00:53:64
  TRACK 56 AUDIO
    TITLE "0:"
    INDEX 01 00:58:44
  TRACK 57 AUDIO
    TITLE "3:cjc030_08233"
    INDEX 01 00:59:16
  TRACK 58 AUDIO
    TITLE "0:"
    INDEX 01 01:00:17
  TRACK 59 AUDIO
    TITLE "4:cjc030_08234"
    INDEX 01 01:00:27
  TRACK 60 AUDIO
    TITLE "0:"
    INDEX 01 01:02:42
  TRACK 61 AUDIO
    TITLE "5:cjc030_08235"
    INDEX 01 01:02:50
  TRACK 62 AUDIO
    TITLE "0:"
    INDEX 01 01:03:53
  TRACK 63 AUDIO
    TITLE "6:cjc030_08236"
    INDEX 01 01:03:65
  TRACK 64 AUDIO
    TITLE "0:"
    INDEX 01 01:07:35
